<?xml version="1.0" encoding="utf-8" ?>
<svg baseProfile="full" height="100%" version="1.1" width="100%" xmlns="http://www.w3.org/2000/svg" xmlns:ev="http://www.w3.org/2001/xml-events" xmlns:xlink="http://www.w3.org/1999/xlink"><defs /><circle cx="100" cy="100" r="40.0" /><text fill="red" font-size="30px" x="100" y="100">abc</text><circle cx="100" cy="200" r="40.0" /><text fill="red" font-size="30px" x="100" y="200">up</text><circle cx="100" cy="300" r="40.0" /><text fill="red" font-size="30px" x="100" y="300">d</text><circle cx="100" cy="400" r="40.0" /><text fill="red" font-size="30px" x="100" y="400">g</text><rect fill="white" height="80" stroke="black" stroke-width="3" width="80" x="260.0" y="60.0" /><text fill="red" font-size="30px" x="300" y="100">f</text><line stroke="black" x1="140.0" x2="170.0" y1="100" y2="100" /><line stroke="black" x1="170.0" x2="170.0" y1="100" y2="80.0" /><line stroke="black" x1="170.0" x2="260.0" y1="80.0" y2="80.0" /><line stroke="black" x1="140.0" x2="200.0" y1="300" y2="300" /><line stroke="black" x1="200.0" x2="200.0" y1="300" y2="100.0" /><line stroke="black" x1="200.0" x2="260.0" y1="100.0" y2="100.0" /><line stroke="black" x1="140.0" x2="230.0" y1="400" y2="400" /><line stroke="black" x1="230.0" x2="230.0" y1="400" y2="120.0" /><line stroke="black" x1="230.0" x2="260.0" y1="120.0" y2="120.0" /><rect fill="white" height="80" stroke="black" stroke-width="3" width="80" x="260.0" y="260.0" /><text fill="red" font-size="30px" x="300" y="300">w</text><line stroke="blue" x1="140.0" x2="180.0" y1="200" y2="200" /><line stroke="blue" x1="180.0" x2="180.0" y1="200" y2="286.6666666666667" /><line stroke="blue" x1="180.0" x2="260.0" y1="286.6666666666667" y2="286.6666666666667" /><line stroke="blue" x1="140.0" x2="220.0" y1="400" y2="400" /><line stroke="blue" x1="220.0" x2="220.0" y1="400" y2="313.3333333333333" /><line stroke="blue" x1="220.0" x2="260.0" y1="313.3333333333333" y2="313.3333333333333" /><rect fill="white" height="80" stroke="black" stroke-width="3" width="80" x="460.0" y="60.0" /><text fill="red" font-size="30px" x="500" y="100">e</text><line stroke="red" x1="340.0" x2="380.0" y1="100" y2="100" /><line stroke="red" x1="380.0" x2="380.0" y1="100" y2="86.66666666666667" /><line stroke="red" x1="380.0" x2="460.0" y1="86.66666666666667" y2="86.66666666666667" /><line stroke="red" x1="140.0" x2="140.0" y1="300" y2="240.0" /><line stroke="red" x1="140.0" x2="420.0" y1="240.0" y2="240.0" /><line stroke="red" x1="420.0" x2="420.0" y1="240.0" y2="113.33333333333334" /><line stroke="red" x1="420.0" x2="460.0" y1="113.33333333333334" y2="113.33333333333334" /><circle cx="700" cy="100" r="40.0" /><line stroke="red" x1="540.0" x2="660.0" y1="100" y2="100" /><rect fill="white" height="80" stroke="black" stroke-width="3" width="80" x="460.0" y="160.0" /><text fill="red" font-size="30px" x="500" y="200">o</text><circle cx="700" cy="200" r="40.0" /><line stroke="green" x1="540.0" x2="660.0" y1="200" y2="200" /></svg>