<?xml version="1.0" encoding="utf-8" ?>
<svg baseProfile="full" height="100%" version="1.1" width="100%" xmlns="http://www.w3.org/2000/svg" xmlns:ev="http://www.w3.org/2001/xml-events" xmlns:xlink="http://www.w3.org/1999/xlink"><defs /><circle cx="100" cy="100" r="40" /><text fill="red" font-size="30px" x="100" y="100">abc</text><circle cx="100" cy="200" r="40" /><text fill="red" font-size="30px" x="100" y="200">d</text><circle cx="100" cy="300" r="40" /><text fill="red" font-size="30px" x="100" y="300">up</text><circle cx="100" cy="400" r="40" /><text fill="red" font-size="30px" x="100" y="400">g</text><rect fill="white" height="80" stroke="black" stroke-width="3" width="80" x="260.0" y="60.0" /><text fill="red" font-size="30px" x="300" y="100">f</text><line stroke="rgb(0%,0%,0%)" x1="100" x2="140.0" y1="100" y2="100" /><line stroke="rgb(0%,0%,0%)" x1="140.0" x2="140.0" y1="100" y2="80.0" /><line stroke="rgb(10%,10%,16%)" x1="140.0" x2="260.0" y1="80.0" y2="80.0" /><line stroke="rgb(0%,0%,0%)" x1="100" x2="180.0" y1="200" y2="200" /><line stroke="rgb(0%,0%,0%)" x1="180.0" x2="180.0" y1="200" y2="100.0" /><line stroke="rgb(10%,10%,16%)" x1="180.0" x2="260.0" y1="100.0" y2="100.0" /><line stroke="rgb(0%,0%,0%)" x1="100" x2="220.0" y1="400" y2="400" /><line stroke="rgb(0%,0%,0%)" x1="220.0" x2="220.0" y1="400" y2="120.0" /><line stroke="rgb(10%,10%,16%)" x1="220.0" x2="260.0" y1="120.0" y2="120.0" /><circle cx="500" cy="100" r="40" /><text fill="red" font-size="30px" x="500" y="100">o</text><circle cx="500" cy="200" r="40" /><text fill="red" font-size="30px" x="500" y="200">e</text><line stroke="rgb(0%,0%,0%)" x1="340.0" x2="420.0" y1="100" y2="100" /><line stroke="rgb(0%,0%,0%)" x1="420.0" x2="420.0" y1="100" y2="200" /><line stroke="rgb(10%,10%,16%)" x1="420.0" x2="500" y1="200" y2="200" /><line stroke="rgb(0%,0%,0%)" x1="100" x2="300.0" y1="200" y2="200" /><line stroke="rgb(0%,0%,0%)" x1="300.0" x2="300.0" y1="200" y2="200" /><line stroke="rgb(10%,10%,16%)" x1="300.0" x2="500" y1="200" y2="200" /></svg>